<?xml version="1.0" encoding="UTF-8"?> <svg xmlns="http://www.w3.org/2000/svg" width="69" height="47" viewBox="0 0 69 47" fill="none"><path d="M5.57292 22.5402C5.62624 22.7736 5.56203 22.9251 5.3803 22.9949C5.30129 23.0252 5.21409 23.0224 5.11871 22.9865C5.02334 22.9506 4.9614 22.8837 4.9329 22.7859C4.82986 22.3993 4.58602 22.1892 4.20141 22.1556C3.87082 22.1918 3.57268 22.3244 3.30699 22.5533C2.76587 23.033 2.40394 23.6252 2.22118 24.33C1.98918 25.0717 1.99143 25.8097 2.22793 26.5439C2.33832 26.8551 2.54113 27.0764 2.83636 27.2079C3.14923 27.3144 3.46218 27.3031 3.7752 27.1738C4.13866 27.0343 4.42622 26.8152 4.63788 26.5163C4.8465 26.2096 4.97707 25.8648 5.02958 25.4821C5.0844 25.2706 5.20903 25.182 5.40345 25.2162C5.60578 25.2473 5.70383 25.3728 5.69761 25.5928C5.61398 26.1779 5.39156 26.6848 5.03033 27.1136C4.67398 27.5314 4.20652 27.8015 3.62796 27.9239C3.15028 28.0257 2.70341 27.9479 2.28734 27.6906C1.90288 27.4211 1.64942 27.0561 1.52698 26.5954C1.28273 25.6285 1.33926 24.6776 1.69656 23.7426C2.00765 22.8526 2.56652 22.1712 3.37318 21.6984C3.74398 21.4835 4.14173 21.4215 4.56642 21.5123C5.08281 21.6767 5.41831 22.0193 5.57292 22.5402ZM6.47356 22.3713C6.57819 22.1951 6.72832 22.1375 6.92394 22.1984C7.10009 22.303 7.15772 22.4531 7.09682 22.6487C6.93306 23.1196 6.89568 23.6008 6.98468 24.0924C7.021 24.3051 7.08952 24.5191 7.19025 24.7343C7.29888 24.9464 7.45951 25.0932 7.67213 25.1748C8.09498 25.2845 8.50123 25.2328 8.89087 25.0197C9.27748 24.7988 9.58786 24.521 9.82203 24.1864C10.3244 23.4405 10.5182 22.6227 10.4033 21.7331C10.3477 21.3283 10.1477 21.0198 9.80327 20.8075C9.46127 20.6487 9.11704 20.6494 8.77058 20.8096C8.387 21.0384 8.14494 21.3761 8.04438 21.8227C7.94383 22.2692 7.8922 22.7015 7.8895 23.1196C7.88511 23.3207 7.78599 23.4404 7.59212 23.4785C7.38309 23.4772 7.2595 23.3795 7.22134 23.1857C7.21974 22.8509 7.23697 22.5179 7.27304 22.1867C7.31701 21.8526 7.40715 21.5324 7.54347 21.2262C7.81913 20.6218 8.27177 20.2305 8.90141 20.0522C9.43257 19.9481 9.91679 20.0523 10.3541 20.3649C10.8078 20.7438 11.0547 21.2337 11.0951 21.8347C11.1824 23.0069 10.8497 24.0412 10.0968 24.9376C9.69304 25.3736 9.20794 25.6686 8.64151 25.8226C8.36863 25.8911 8.09093 25.9116 7.80839 25.884C7.52585 25.8565 7.26554 25.757 7.02745 25.5855C6.80214 25.4 6.63245 25.1705 6.51839 24.897C6.4013 24.6155 6.32431 24.3323 6.28743 24.0473C6.22158 23.4743 6.28362 22.9156 6.47356 22.3713ZM11.8615 19.2967C11.7431 19.1065 11.7617 18.9543 11.9174 18.8401C12.0809 18.723 12.2465 18.741 12.4141 18.8942C12.7201 19.2663 13.0683 19.595 13.4589 19.8802C14.1743 20.4215 14.9765 20.8343 15.8653 21.1187C16.751 21.3951 17.6427 21.4744 18.5403 21.3565C18.7572 21.3548 18.8768 21.4539 18.8992 21.6539C18.9215 21.8538 18.8255 21.9813 18.6109 22.0365C18.0597 22.1121 17.5119 22.1138 16.9675 22.0418C15.962 21.902 15.0076 21.5884 14.1043 21.1011C13.232 20.6472 12.4844 20.0458 11.8615 19.2967ZM12.6096 25.1425C12.4394 25.2894 12.2765 25.3021 12.121 25.1805C11.9625 25.0509 11.945 24.899 12.0684 24.7247C12.5203 24.2249 12.9432 23.709 13.3373 23.1769C14.6966 21.4041 15.6844 19.443 16.3007 17.2935C16.3616 17.0979 16.4941 17.0062 16.6983 17.0185C16.8988 17.0685 16.9944 17.1995 16.9852 17.4115C16.8146 18.03 16.6073 18.6354 16.3633 19.2277C15.4649 21.4219 14.2137 23.3935 12.6096 25.1425ZM19.7526 17.1107C19.8523 16.9455 19.9906 16.8924 20.1674 16.9515C20.3296 17.0434 20.3827 17.1816 20.3266 17.3663C20.2657 17.5619 20.2158 17.7624 20.1768 17.9678C20.0914 18.336 20.0766 18.7224 20.1322 19.1272C20.1958 19.5289 20.414 19.8258 20.787 20.0181C21.1448 20.1708 21.4796 20.1692 21.7915 20.0133C22.1033 19.8573 22.365 19.6299 22.5767 19.3311C23.0462 18.6885 23.2779 17.9695 23.2717 17.1741C23.2296 16.4741 22.8897 16.0017 22.2518 15.757C21.9699 15.6839 21.6898 15.7099 21.4114 15.8349C21.1074 15.9878 20.8591 16.2146 20.6663 16.5152C20.4783 16.805 20.3411 17.1205 20.2546 17.462C20.1681 17.8034 20.1137 18.1461 20.0916 18.49C20.0255 19.286 19.997 20.0856 20.0062 20.8889C19.9983 21.9074 20.024 22.931 20.0835 23.9597C20.2013 25.9906 20.4269 28.0072 20.7604 30.0096C20.7609 30.1998 20.6697 30.3164 20.4867 30.3594C20.2935 30.352 20.1793 30.2553 20.1442 30.0694C20.0946 29.7983 20.0489 29.5258 20.0071 29.2517C19.664 27.0354 19.4625 24.81 19.4026 22.5757C19.3748 21.5348 19.3791 20.4951 19.4156 19.4566C19.4022 18.6187 19.5127 17.7966 19.7472 16.9904C19.8769 16.5961 20.0737 16.235 20.3376 15.9071C20.6064 15.5682 20.9399 15.3269 21.338 15.1831C22.1803 14.9685 22.8844 15.1969 23.4503 15.8681C23.7205 16.2177 23.8706 16.6088 23.9007 17.0414C23.9278 17.4662 23.8771 17.8891 23.7486 18.3101C23.6292 18.7548 23.4418 19.1758 23.1863 19.573C22.9308 19.9703 22.5994 20.2879 22.1922 20.5258C21.7837 20.737 21.3537 20.7978 20.9023 20.7081C20.4509 20.6185 20.0865 20.3777 19.809 19.9855C19.5511 19.5497 19.439 19.0805 19.4727 18.578C19.5034 18.0676 19.5967 17.5785 19.7526 17.1107ZM29.0332 15.7104C28.9595 15.92 28.8151 16.0162 28.6 15.9991C28.3898 15.971 28.2918 15.8454 28.3059 15.6224C28.3704 15.3891 28.4241 15.151 28.4668 14.9079C28.5143 14.654 28.4625 14.4246 28.3114 14.2197C28.0096 13.8822 27.6025 13.7665 27.0902 13.8725C26.6028 13.9962 26.1843 14.252 25.8346 14.6401C25.485 15.0281 25.2419 15.4342 25.1055 15.8582C24.9728 16.2446 24.92 16.6502 24.9471 17.0749C24.979 17.4888 25.1653 17.8207 25.5061 18.0706C25.8711 18.2659 26.2609 18.2659 26.6755 18.0705C27.087 17.8672 27.3983 17.58 27.6094 17.2088C27.8223 16.8189 27.9906 16.4189 28.1142 16.0088C28.2457 15.5957 28.4234 15.1966 28.6473 14.8114C28.7914 14.6201 28.9589 14.5604 29.1496 14.6322C29.3483 14.701 29.4029 14.8432 29.3134 15.0589C29.2896 15.1859 29.3047 15.3433 29.3587 15.5311C29.3901 15.7547 29.4334 15.9738 29.4886 16.1883C29.5928 16.6016 29.8722 16.857 30.3266 16.9545C30.5156 17.0452 30.5717 17.1913 30.495 17.393C30.3745 17.5752 30.2047 17.6405 29.9853 17.5887C29.3638 17.4102 28.9612 17.0344 28.7775 16.4613C28.7029 16.1726 28.6442 15.8779 28.6012 15.5771C28.52 15.3181 28.5353 15.0629 28.6473 14.8114C28.8678 14.89 29.0899 14.9725 29.3134 15.0589C29.039 15.5722 28.8139 16.1074 28.6379 16.6645C28.4619 17.2216 28.1508 17.7218 27.7045 18.165C27.2442 18.5956 26.7017 18.8355 26.077 18.885C25.4402 18.9028 24.9481 18.6837 24.6009 18.2277C24.2913 17.7754 24.1521 17.2713 24.1835 16.7153C24.2227 16.1563 24.3786 15.6296 24.6512 15.1351C24.9402 14.5891 25.357 14.1163 25.9018 13.7168C26.4513 13.3064 27.0606 13.1224 27.7296 13.1647C28.3603 13.249 28.8167 13.5407 29.099 14.0397C29.2179 14.3023 29.2557 14.5779 29.2124 14.8665C29.166 15.1472 29.1063 15.4285 29.0332 15.7104ZM31.4121 11.4928C31.4779 11.2862 31.608 11.2 31.8024 11.2342C32.0017 11.2574 32.0928 11.3765 32.0756 11.5916C31.7349 13.2546 31.577 14.9334 31.602 16.6281C31.6007 16.8372 31.4991 16.9623 31.2973 17.0034C31.0962 16.9991 30.975 16.896 30.9339 16.6942C30.9064 14.946 31.0659 13.2122 31.4121 11.4928ZM35.5148 9.95872C35.5647 9.75823 35.6918 9.66413 35.8959 9.67641C36.0916 9.7373 36.1872 9.86832 36.1828 10.0694C36.0218 11.7993 35.9882 13.5302 36.0819 15.262C36.0677 15.485 35.9647 15.6062 35.7726 15.6255C35.5776 15.6369 35.4579 15.5378 35.4137 15.3281C35.3146 13.5349 35.3483 11.7451 35.5148 9.95872ZM36.3801 12.1423C36.5947 12.0871 36.7383 12.1543 36.8111 12.344C36.8384 12.4151 36.8341 12.4983 36.7982 12.5937C36.7702 12.6861 36.7112 12.745 36.6213 12.7704C34.5489 13.2758 32.6172 14.1125 30.8263 15.2805C30.63 15.383 30.4747 15.3565 30.3606 15.2009C30.2434 15.0373 30.266 14.8836 30.4284 14.7397C32.2606 13.5378 34.2445 12.6719 36.3801 12.1423ZM38.029 14.9498C37.8436 15.0572 37.6953 15.037 37.5842 14.8893C37.478 14.7306 37.4951 14.5745 37.6356 14.4208C37.9566 14.1707 38.2372 13.8862 38.4774 13.5673C38.7255 13.2455 38.9627 12.9187 39.189 12.5871C39.7102 11.843 40.2315 11.099 40.7527 10.355C40.8932 10.2013 41.0372 10.1869 41.1848 10.3115C41.3372 10.4253 41.3627 10.5741 41.2611 10.7582C40.7301 11.5241 40.1991 12.29 39.6681 13.0559C39.218 13.7726 38.6716 14.4039 38.029 14.9498ZM39.86 8.10034C40.0642 8.11263 40.1759 8.21478 40.1953 8.40681C40.2225 8.59581 40.1313 8.71242 39.9216 8.75664C39.5138 8.80438 39.1871 9.01593 38.9413 9.39129C38.7121 9.71502 38.5912 10.0968 38.5787 10.5368C38.5633 10.9688 38.7539 11.2764 39.1505 11.4596C39.3273 11.5186 39.5051 11.5093 39.6838 11.4316C39.8594 11.3461 40.0126 11.2374 40.1434 11.1056C40.4589 10.7941 40.615 10.4214 40.6117 9.98758C40.6288 9.77248 40.7295 9.65679 40.9136 9.6405C41.1056 9.62118 41.2238 9.71636 41.268 9.92603C41.2766 10.657 40.9994 11.2575 40.4365 11.7275C40.2042 11.9254 39.9422 12.0577 39.6505 12.1243C39.3667 12.188 39.0811 12.1525 38.7938 12.0181C38.2465 11.7023 37.9545 11.2251 37.9179 10.5865C37.9055 10.011 38.0742 9.47033 38.4239 8.96439C38.7815 8.45541 39.2603 8.1674 39.86 8.10034ZM40.6037 8.19562C40.6209 7.98052 40.7255 7.86332 40.9175 7.844C41.1095 7.82468 41.2237 7.92137 41.26 8.13407C41.2826 8.99573 41.327 9.86712 41.3932 10.7483C41.4644 11.6185 41.6309 12.4656 41.8929 13.2898C41.9371 13.4994 41.8683 13.6391 41.6866 13.7089C41.5128 13.7756 41.38 13.7133 41.2884 13.5218C41.0064 12.6691 40.8293 11.7943 40.7569 10.8973C40.6816 9.99248 40.6305 9.09192 40.6037 8.19562ZM43.3064 6.62784C43.374 6.40244 43.5104 6.30926 43.7158 6.34828C43.926 6.37637 44.0256 6.50587 44.0145 6.73677C43.7241 8.50726 43.6136 10.2858 43.6829 12.0723C43.6639 12.3062 43.5505 12.4359 43.3426 12.4613C43.1318 12.4788 43.0091 12.3717 42.9746 12.1402C42.8999 10.2923 43.0105 8.45484 43.3064 6.62784ZM43.6618 12.23C43.4946 12.3848 43.3278 12.399 43.1614 12.2725C43.0029 12.1429 42.9848 11.9777 43.107 11.7766C44.8609 9.66193 46.4553 7.42713 47.8903 5.07222C48.0052 4.94652 48.1456 4.91076 48.3114 4.96495C48.4627 5.05194 48.5316 5.18415 48.5181 5.36157C48.3972 7.14858 48.3982 8.93415 48.5209 10.7183C48.5129 10.9571 48.4034 11.0852 48.1926 11.1027C47.9817 11.1202 47.8511 11.0162 47.8008 10.7907C47.6805 8.94219 47.682 7.09221 47.8054 5.24079C48.0241 5.33816 48.2373 5.43309 48.445 5.52559C47.0149 7.86956 45.4205 10.1044 43.6618 12.23ZM45.1168 6.31365C44.8998 6.31533 44.7677 6.20739 44.7205 5.98982C44.7267 5.76986 44.8362 5.64172 45.0489 5.6054C45.1637 5.59757 45.281 5.58428 45.4007 5.56552C45.4274 5.56432 45.4527 5.55918 45.4764 5.55008C45.5268 5.53978 45.5441 5.53766 45.5283 5.54373C45.5125 5.5498 45.5283 5.54373 45.5757 5.52553C45.6025 5.52433 45.6277 5.51919 45.6514 5.51009C45.7571 5.47856 45.8599 5.43913 45.9596 5.3918C45.9881 5.37176 46.0143 5.3572 46.038 5.3481C46.0696 5.33597 46.0696 5.33597 46.038 5.3481C46.0143 5.3572 46.0182 5.35568 46.0498 5.34355C46.1021 5.31442 46.1489 5.28285 46.1902 5.24885C46.3836 5.13838 46.5522 5.16432 46.6961 5.32665C46.8114 5.50902 46.7855 5.67763 46.6183 5.83247C46.1629 6.13417 45.6624 6.29457 45.1168 6.31365ZM51.9491 3.63658C52.0021 3.44399 52.1163 3.36386 52.2919 3.39618C52.4754 3.42546 52.5635 3.53672 52.556 3.72995C52.2937 5.4081 52.2017 7.09335 52.2802 8.78569C52.2649 8.98195 52.1667 9.09218 51.9856 9.11637C51.8094 9.12962 51.7022 9.03931 51.664 8.84545C51.5831 7.09963 51.6781 5.36334 51.9491 3.63658ZM54.7289 2.44711C54.9307 2.40592 55.0634 2.46829 55.1271 2.63422C55.1544 2.70533 55.1525 2.78311 55.1215 2.86755C55.0874 2.94409 55.0309 2.99753 54.9518 3.02786C53.069 3.57837 51.3376 4.42886 49.7575 5.57931C49.577 5.67581 49.4327 5.65414 49.3246 5.51431C49.2214 5.36355 49.2431 5.21925 49.3896 5.08141C51.0189 3.89392 52.7987 3.01582 54.7289 2.44711ZM55.429 6.5027C55.3451 6.54396 55.2579 6.54117 55.1674 6.49432C55.0769 6.44748 55.0165 6.38455 54.9862 6.30553C54.9164 6.1238 54.9836 5.98014 55.1879 5.87454C55.7513 5.59478 56.3066 5.2819 56.8537 4.9359C57.4009 4.5899 57.8915 4.17945 58.3257 3.70456C58.7148 3.30134 59.0035 2.83698 59.1916 2.31149C59.278 2.08793 59.2778 1.87495 59.1911 1.67255C59.131 1.58683 59.0435 1.54788 58.9286 1.55571C58.8187 1.5526 58.7187 1.56377 58.6287 1.58923C58.0544 1.74624 57.5842 2.04459 57.2181 2.48429C56.852 2.92398 56.6405 3.43579 56.5836 4.0197C56.5414 4.57081 56.6568 5.08404 56.9299 5.5594C57.0604 5.78128 57.2462 5.92298 57.4874 5.98451C57.7037 6.0284 57.9192 6.02277 58.1337 5.96761C58.6278 5.8142 59.0442 5.54103 59.3829 5.14811C59.7308 4.77889 60.0233 4.37195 60.2606 3.92731C60.3622 3.74326 60.5123 3.68563 60.711 3.75443C60.8871 3.85906 60.9447 4.00918 60.8838 4.20481C60.5687 4.8244 60.1347 5.39439 59.582 5.91479C59.0373 6.43214 58.3978 6.69119 57.6638 6.69193C57.1583 6.65027 56.7649 6.45223 56.4838 6.09779C56.2106 5.74031 56.035 5.31818 55.9569 4.83141C55.8789 4.34463 55.8852 3.8889 55.9761 3.46421C56.1448 2.74669 56.5077 2.14506 57.0646 1.6593C57.3224 1.43343 57.6221 1.24586 57.9637 1.0966C58.3102 0.936412 58.6578 0.861899 59.0066 0.873065C59.3912 0.906738 59.6691 1.09924 59.8402 1.45057C59.9627 1.79336 59.9649 2.14155 59.8468 2.49512C59.6209 3.13483 59.2712 3.69971 58.7975 4.18977C58.3268 4.68773 57.7997 5.12125 57.2161 5.49031C56.6326 5.85938 56.0369 6.19684 55.429 6.5027ZM26.3499 26.9289C26.1803 27.0302 26.032 27.0101 25.9051 26.8684C25.8038 26.6988 25.8239 26.5506 25.9656 26.4237C26.1121 26.2858 26.2632 26.1598 26.4188 26.0457C26.7684 25.7755 27.1574 25.6081 27.5858 25.5433C28.075 25.5187 28.4835 25.6973 28.8114 26.0792C29.1727 26.5479 29.3923 27.0846 29.4703 27.6892C29.5726 28.2392 29.6497 28.7944 29.7016 29.3547C29.9456 31.6906 29.732 33.9801 29.0609 36.2231C28.8977 36.7662 28.6938 37.2978 28.4492 37.8177C28.2125 38.3347 27.901 38.7987 27.5149 39.2099C27.1622 39.59 26.7355 39.8717 26.2347 40.0549C25.7338 40.238 25.2548 40.159 24.7974 39.8179C24.4233 39.481 24.2115 39.0591 24.162 38.5523C24.1156 38.0534 24.1584 37.5746 24.2906 37.1159C24.452 36.5916 24.6665 36.0877 24.9342 35.6042C25.1939 35.1237 25.4756 34.653 25.7791 34.192C27.1245 32.1706 28.7478 30.4007 30.6489 28.8822C30.8343 28.7748 30.9801 28.8004 31.0864 28.9591C31.1975 29.1068 31.1813 29.2535 31.0378 29.3993C30.8232 29.5723 30.6101 29.7493 30.3985 29.9302C28.7168 31.3826 27.2814 33.0397 26.0922 34.9013C25.8288 35.3016 25.5864 35.721 25.3649 36.1596C25.1325 36.5933 24.9666 37.0468 24.8673 37.5201C24.7808 37.8615 24.7693 38.2331 24.8328 38.6348C24.8915 39.0474 25.1076 39.3271 25.4812 39.4738C25.8889 39.5439 26.2557 39.4484 26.5816 39.1874C26.9391 38.9142 27.2407 38.5899 27.4864 38.2145C27.7771 37.7675 28.0117 37.2921 28.1901 36.7885C28.3794 36.2898 28.5389 35.7843 28.6687 35.2722C29.1616 33.1791 29.2745 31.0643 29.0073 28.9276C28.9578 28.4208 28.8752 27.9222 28.7595 27.4317C28.7122 27.2142 28.6343 26.9993 28.5257 26.7872C28.414 26.5671 28.2631 26.3984 28.073 26.281C27.9436 26.2038 27.8136 26.1721 27.6829 26.186C27.5256 26.2011 27.3669 26.2483 27.2071 26.3278C26.9031 26.4808 26.6174 26.6811 26.3499 26.9289ZM27.4958 30.7997C27.4168 30.83 27.3335 30.8257 27.2461 30.7868C27.1665 30.7448 27.1131 30.6883 27.0858 30.6171C27.019 30.4433 27.0784 30.3027 27.2638 30.1953C27.6546 30.009 27.9626 29.7366 28.1876 29.3783C28.4176 29.009 28.5661 28.6165 28.6332 28.2009C28.7088 27.8546 28.7133 27.4767 28.6467 27.0671C28.5801 26.6575 28.3576 26.3848 27.9791 26.2491C27.6031 26.1668 27.2494 26.2255 26.9181 26.4252C26.5947 26.6219 26.3341 26.876 26.1364 27.1876C25.7283 27.8247 25.5237 28.5197 25.5226 29.2726C25.5249 29.444 25.5464 29.5944 25.587 29.7238C25.6258 29.8721 25.6822 29.9955 25.7563 30.094C25.8194 30.1876 25.9041 30.2548 26.0104 30.2956C26.1307 30.3492 26.268 30.3644 26.4224 30.3414C26.6345 30.3507 26.7501 30.4513 26.7695 30.6434C26.7858 30.8275 26.693 30.9402 26.4912 30.9813C25.9686 31.0369 25.5483 30.8628 25.2301 30.4592C24.9685 30.061 24.8551 29.624 24.8901 29.1482C24.9181 28.1584 25.2361 27.2748 25.8443 26.4974C26.1624 26.1215 26.5654 25.8489 27.0535 25.6797C27.5464 25.4995 28.0246 25.529 28.488 25.7681C28.9381 26.0668 29.2034 26.4862 29.2838 27.0265C29.3722 27.5637 29.3509 28.075 29.22 28.5604C29.0969 29.0428 28.8943 29.4832 28.612 29.8817C28.3268 30.2722 27.9547 30.5782 27.4958 30.7997ZM35.8107 25.9625C35.737 26.1721 35.5926 26.2683 35.3775 26.2512C35.1673 26.2231 35.0693 26.0975 35.0834 25.8745C35.1479 25.6412 35.2016 25.4031 35.2443 25.16C35.2918 24.9061 35.24 24.6767 35.0889 24.4718C34.7871 24.1343 34.38 24.0186 33.8677 24.1246C33.3803 24.2483 32.9618 24.5041 32.6121 24.8922C32.2625 25.2802 32.0194 25.6863 31.8831 26.1103C31.7503 26.4967 31.6975 26.9023 31.7246 27.327C31.7565 27.7409 31.9428 28.0728 32.2836 28.3227C32.6486 28.518 33.0384 28.518 33.453 28.3226C33.8645 28.1193 34.1758 27.8321 34.3869 27.4609C34.5998 27.071 34.7681 26.671 34.8917 26.2609C35.0232 25.8478 35.2009 25.4487 35.4248 25.0635C35.5689 24.8722 35.7364 24.8125 35.9271 24.8843C36.1258 24.9531 36.1804 25.0953 36.0909 25.311C36.0671 25.438 36.0822 25.5954 36.1362 25.7832C36.1676 26.0068 36.2109 26.2259 36.2661 26.4404C36.3703 26.8537 36.6497 27.1091 37.1041 27.2066C37.2931 27.2973 37.3492 27.4434 37.2725 27.6451C37.152 27.8273 36.9822 27.8926 36.7628 27.8408C36.1413 27.6623 35.7387 27.2865 35.555 26.7134C35.4804 26.4247 35.4217 26.13 35.3787 25.8292C35.2975 25.5702 35.3128 25.315 35.4248 25.0635C35.6453 25.1421 35.8674 25.2246 36.0909 25.311C35.8165 25.8243 35.5914 26.3595 35.4154 26.9166C35.2394 27.4737 34.9283 27.9739 34.482 28.4171C34.0217 28.8477 33.4792 29.0876 32.8545 29.1371C32.2177 29.1549 31.7256 28.9358 31.3784 28.4798C31.0688 28.0275 30.9296 27.5234 30.961 26.9674C31.0002 26.4084 31.1562 25.8817 31.4287 25.3872C31.7177 24.8412 32.1345 24.3684 32.6793 23.9689C33.2288 23.5585 33.8381 23.3745 34.5071 23.4168C35.1378 23.5011 35.5943 23.7928 35.8765 24.2918C35.9954 24.5544 36.0332 24.83 35.9899 25.1186C35.9435 25.3993 35.8838 25.6806 35.8107 25.9625ZM39.1469 21.4046C39.1999 21.212 39.3142 21.1319 39.4898 21.1642C39.6733 21.1935 39.7613 21.3047 39.7539 21.498C39.4915 23.1761 39.3995 24.8614 39.478 26.5537C39.4627 26.75 39.3645 26.8602 39.1834 26.8844C39.0072 26.8976 38.9 26.8073 38.8619 26.6135C38.781 24.8677 38.876 23.1314 39.1469 21.4046ZM41.9268 20.2151C42.1285 20.1739 42.2613 20.2363 42.3249 20.4022C42.3522 20.4734 42.3504 20.5511 42.3193 20.6356C42.2852 20.7121 42.2287 20.7656 42.1497 20.7959C40.2668 21.3464 38.5354 22.1969 36.9554 23.3473C36.7748 23.4438 36.6305 23.4222 36.5225 23.2823C36.4193 23.1316 36.4409 22.9873 36.5875 22.8494C38.2167 21.6619 39.9965 20.7838 41.9268 20.2151ZM41.7049 20.7354C41.6498 20.5209 41.7091 20.3803 41.8829 20.3135C41.962 20.2832 42.0452 20.2875 42.1327 20.3265C42.225 20.3545 42.2839 20.4135 42.3094 20.5034C42.7604 22.0799 43.6696 23.3265 45.0368 24.2431C45.1795 24.3787 45.197 24.5307 45.0894 24.6989C44.9507 24.8337 44.7988 24.8512 44.6336 24.7515C43.1668 23.7643 42.1905 22.4256 41.7049 20.7354ZM45.6438 18.7747C45.6937 18.5742 45.812 18.4926 45.9985 18.5298C46.1899 18.556 46.2904 18.6761 46.2999 18.89C46.1886 19.9934 46.0248 21.0898 45.8083 22.1792C45.42 24.096 44.8525 25.9593 44.1057 27.769C43.3656 29.5489 42.4585 31.2479 41.3844 32.866C41.2457 33.0008 41.0923 33.0144 40.924 32.9067C40.7892 32.7681 40.7717 32.6162 40.8715 32.4509C41.459 31.5727 41.9968 30.6591 42.4847 29.7103C43.3523 28.0265 44.048 26.2726 44.5718 24.4488C45.1102 22.5922 45.4675 20.7008 45.6438 18.7747Z" fill="#C2255B"></path></svg> 